# xmcd CD database file
#
# Track frame offsets:
#	150
#	14964
#	35704
#	51381
#	72233
#	88660
#	109887
#	124064
#	140866
#	157480
#
# Disc length: 2462 seconds
#
# Revision: 2
# Processed by: cddbd v1.4PL0 Copyright (c) Steve Scherf et al.
# Submitted via: CDex 1.40Release
#
DISCID=a3099c0a
DTITLE=Son Seals - The Son Seals Blues Band 
DYEAR=1973
DGENRE=Blues
TTITLE0=Mother-In-Law Blues
TTITLE1=Sitting At My Window
TTITLE2=Look, Now Baby
TTITLE3=Your Love Is Like A Cancer
TTITLE4=All Your Love
TTITLE5=Cotton Picking Blues
TTITLE6=Hot Sauce
TTITLE7=How Could She Leave Me ?
TTITLE8=Going Home Tomorrow
TTITLE9=Now That I'm Down
EXTD=YEAR: 1973 ID3G: 0
EXTT0=
EXTT1=
EXTT2=
EXTT3=
EXTT4=
EXTT5=
EXTT6=
EXTT7=
EXTT8=
EXTT9=
PLAYORDER=
